<svg xmlns="http://www.w3.org/2000/svg" viewBox="0 0 24 24"><defs><style>.cls-1{fill:#fbbc71;}.cls-2{fill:#400000;}.cls-3{fill:#fff;}.cls-4,.cls-5{fill:#6e0000;}.cls-4{fill-rule:evenodd;}</style></defs><title>AxialConnection</title><g id="Top"><rect class="cls-1" x="4.29" y="11.52" width="15.41" height="3.09"/><path class="cls-2" d="M19.58,11.64v2.84H4.42V11.64H19.58m.25-.25H4.17v3.34H19.83V11.39Z"/><rect class="cls-1" x="4.29" y="14.71" width="15.41" height="6.41"/><path class="cls-2" d="M19.58,14.84V21H4.42V14.84H19.58m.25-.25H4.17v6.66H19.83V14.59Z"/><path class="cls-3" d="M15.1,8.57H12.58v.59h-.65V8.57H9.32a.88.88,0,0,0-.88.88v.75a.88.88,0,0,0,.88.88H11L11,13.57a.55.55,0,0,0-.2.53.61.61,0,0,0,.13.22.55.55,0,0,0-.13.45.61.61,0,0,0,.13.22.53.53,0,0,0-.13.46.67.67,0,0,0,.13.21.53.53,0,0,0-.13.46.61.61,0,0,0,.13.22s0,0,0,0a.52.52,0,0,0-.09.42.47.47,0,0,0,.18.29.47.47,0,0,0-.06.35.52.52,0,0,0,.2.32.57.57,0,0,0-.07.33.54.54,0,0,0,.32.37l.76,1.76.9-2a.55.55,0,0,0,.22-.55.46.46,0,0,0-.07-.16.55.55,0,0,0,.22-.54c0-.07-.07-.12-.11-.18s.14-.05.18-.12a.54.54,0,0,0,.09-.41A.68.68,0,0,0,13.4,16l0,0a.52.52,0,0,0,0-.65.42.42,0,0,0,0-.64.57.57,0,0,0,.14-.47.7.7,0,0,0-.14-.21.52.52,0,0,0-.12-.82l.06-2.09H15.1A.87.87,0,0,0,16,10.2V9.45A.87.87,0,0,0,15.1,8.57Zm-2.59,4.17-.77.16,0-1.4.76,0ZM11.3,16.8h0v-.24h0Zm0-.68h0v-.23h0Zm0-.67h0v-.23h0Zm3.92-5.25a.12.12,0,0,1-.12.12H9.32a.12.12,0,0,1-.12-.12V9.45a.12.12,0,0,1,.12-.12h1.85v.59h2.17V9.33H15.1a.12.12,0,0,1,.12.12Z"/><polygon class="cls-4" points="12.21 2.28 10.86 4.98 13.56 4.98 12.21 2.28"/><rect class="cls-5" x="11.86" y="4.53" width="0.71" height="3.04"/><polygon class="cls-2" points="12.94 11.09 12.88 13.05 11.35 13.38 11.42 11.13 12.94 11.09"/><path class="cls-2" d="M12.56,18.23c-.16.38-.25.59-.4,1l-.07.14c-.15-.38-.23-.55-.37-.91Z"/><path class="cls-2" d="M11.3,14.16a.17.17,0,0,1-.17-.13.16.16,0,0,1,.14-.2L13,13.47a.17.17,0,0,1,.2.13.19.19,0,0,1-.14.2l-1.68.36Z"/><path class="cls-2" d="M11.3,14.84a.18.18,0,0,1-.17-.14.17.17,0,0,1,.14-.2L13,14.14a.17.17,0,0,1,.2.14.18.18,0,0,1-.14.19l-1.68.36Z"/><path class="cls-2" d="M11.3,15.51a.18.18,0,0,1-.17-.14.17.17,0,0,1,.14-.2L13,14.81a.19.19,0,0,1,.2.14.17.17,0,0,1-.14.19l-1.68.36Z"/><path class="cls-2" d="M11.3,16.18a.18.18,0,0,1-.17-.14.16.16,0,0,1,.14-.19L13,15.49a.17.17,0,0,1,.2.13.19.19,0,0,1-.14.2l-1.68.36Z"/><path class="cls-2" d="M11.3,16.85a.17.17,0,0,1-.17-.14.16.16,0,0,1,.14-.19L13,16.16a.17.17,0,0,1,.2.13.19.19,0,0,1-.14.2l-1.68.36Z"/><path class="cls-2" d="M11.42,17.5a.18.18,0,0,1-.17-.14.17.17,0,0,1,.13-.2l1.41-.3A.17.17,0,0,1,13,17a.18.18,0,0,1-.14.19l-1.4.3Z"/><path class="cls-2" d="M11.55,18.15a.18.18,0,0,1-.17-.14.17.17,0,0,1,.14-.2l1.12-.24a.17.17,0,0,1,.2.14.16.16,0,0,1-.14.19l-1.12.24Z"/><path class="cls-2" d="M15.1,9H13v.59H11.55V9H9.32a.5.5,0,0,0-.5.5v.75a.5.5,0,0,0,.5.5H15.1a.5.5,0,0,0,.5-.5V9.45A.5.5,0,0,0,15.1,9Z"/></g></svg>