<svg xmlns="http://www.w3.org/2000/svg" viewBox="0 0 24 24"><defs><style>.cls-1{fill:#400000;}</style></defs><title>Bolt</title><g id="Top"><polygon class="cls-1" points="15.21 10.79 12.88 13.12 9.95 11.2 12.78 8.37 15.21 10.79"/><path class="cls-1" d="M13.19,4.19a.78.78,0,0,0-1.08,0L11.3,5a.76.76,0,0,0,0,1.08l.94.94,1.89-1.88Z"/><rect class="cls-1" x="14.01" y="5.76" width="2.67" height="4.95" transform="translate(-1.33 13.26) rotate(-45)"/><path class="cls-1" d="M19.38,10.39l-.94-.94-1.89,1.88.95.95a.78.78,0,0,0,1.08,0l.8-.81A.76.76,0,0,0,19.38,10.39Z"/><path class="cls-1" d="M9.33,12.25a.28.28,0,0,1,.36-.43l2.46,1.59a.29.29,0,0,1,.08.39.29.29,0,0,1-.4.08L9.37,12.29Z"/><path class="cls-1" d="M8.52,13.06a.27.27,0,0,1,0-.36.28.28,0,0,1,.39-.08l2.46,1.59a.29.29,0,1,1-.32.48L8.56,13.1Z"/><path class="cls-1" d="M7.71,13.87a.29.29,0,0,1,0-.36.28.28,0,0,1,.39-.08L10.53,15a.28.28,0,1,1-.32.47L7.75,13.9Z"/><path class="cls-1" d="M6.9,14.68a.29.29,0,0,1,0-.36.28.28,0,0,1,.4-.08l2.46,1.59a.29.29,0,1,1-.33.47L6.94,14.71Z"/><path class="cls-1" d="M6.09,15.49a.3.3,0,0,1,0-.37.29.29,0,0,1,.4-.07l2.46,1.59a.29.29,0,1,1-.33.47L6.13,15.52Z"/><path class="cls-1" d="M5.29,16.3a.28.28,0,0,1,.36-.44l2.46,1.59a.29.29,0,0,1,.07.4.28.28,0,0,1-.39.07L5.33,16.33Z"/><path class="cls-1" d="M4.48,17.1a.27.27,0,0,1,0-.36.29.29,0,0,1,.4-.07L7.3,18.26a.28.28,0,0,1-.32.47L4.52,17.14A.08.08,0,0,1,4.48,17.1Z"/></g></svg>