<svg xmlns="http://www.w3.org/2000/svg" xmlns:xlink="http://www.w3.org/1999/xlink" viewBox="0 0 24 24"><defs><style>.cls-1,.cls-3,.cls-4,.cls-7,.cls-8{fill:none;}.cls-1,.cls-3,.cls-7,.cls-8{stroke:#000;}.cls-1{stroke-linecap:round;}.cls-1,.cls-3{stroke-linejoin:bevel;}.cls-2{stroke:#400000;fill:url(#TimberGradient);}.cls-2,.cls-4{stroke-miterlimit:10;}.cls-4{stroke:#fbbc71;}.cls-4,.cls-5,.cls-7,.cls-9{fill-rule:evenodd;}.cls-6{fill:#fff;}.cls-7,.cls-8{stroke-linejoin:round;}.cls-9{fill:#400000;opacity:0.4;}</style><linearGradient id="TimberGradient" x1="6.77" y1="12.58" x2="18.9" y2="12.58" gradientTransform="translate(23.5 0.32) rotate(90)" gradientUnits="userSpaceOnUse"><stop offset="0" stop-color="#fbbc71"/><stop offset="1" stop-color="#5f2922"/></linearGradient></defs><title>CrossSection</title><g id="GH_Library" data-name="GH Library"><line class="cls-1" x1="16.31" y1="7.77" x2="21.49" y2="2.58"/><rect class="cls-2" x="4.85" y="7.09" width="12.13" height="12.13"/><line class="cls-3" x1="10.23" y1="6.6" x2="10.23" y2="4.38"/><polyline class="cls-4" points="10.23 7.6 10.23 13.85 16.45 13.85"/><line class="cls-3" x1="17.48" y1="13.85" x2="20.23" y2="13.85"/><path class="cls-5" d="M10.23,2.58A1.36,1.36,0,1,1,8.88,3.93,1.35,1.35,0,0,1,10.23,2.58Z"/><rect class="cls-6" x="9.78" y="3.48" width="0.9" height="0.9"/><path class="cls-5" d="M20.14,12.5a1.35,1.35,0,1,1-1.35,1.35A1.35,1.35,0,0,1,20.14,12.5Z"/><rect class="cls-6" x="19.69" y="13.4" width="0.9" height="0.9"/><polyline class="cls-7" points="18.6 15.81 18.6 17.11 19.65 18.16 20.7 17.11 20.7 15.81"/><line class="cls-8" x1="19.65" y1="19.74" x2="19.65" y2="18.16"/><polyline class="cls-7" points="12.19 2.75 14.35 2.75 14.35 3.23 12.43 5.15 12.43 5.63 14.59 5.63"/></g><g id="Middle"><polygon class="cls-9" points="13.61 19.22 9.56 14.52 10.54 13.44 16.98 17.2 16.98 19.22 13.61 19.22"/></g><g id="Top"><line class="cls-1" x1="2.83" y1="21.24" x2="10.24" y2="13.83"/></g></svg>