<svg xmlns="http://www.w3.org/2000/svg" viewBox="0 0 24 24"><defs><style>.cls-1{fill:#c49358;}.cls-2{fill:#400000;}.cls-3{fill:#fbbc71;}.cls-4{fill:#8f6b40;}.cls-5{fill:#6e0000;fill-rule:evenodd;}.cls-6{fill:none;stroke:#6e0000;stroke-linejoin:bevel;}</style></defs><title>Deformations</title><g id="Top"><path class="cls-1" d="M11.34,19.33c-.69,0-1.39,0-2.07-.09a23.14,23.14,0,0,1-6.14-1.42l-.34-.13.44-6.79L8,7.36l.24.08a20.32,20.32,0,0,0,6,1.1h.58a20,20,0,0,0,5.34-.72l.6-.16.4,7.61-4.68,3.47-.1,0A23.53,23.53,0,0,1,11.34,19.33Z"/><path class="cls-2" d="M8.09,7.92A21.31,21.31,0,0,0,14.27,9h.59a21,21,0,0,0,5.47-.73L20.69,15l-4.38,3.24a22.9,22.9,0,0,1-5,.55c-.65,0-1.32,0-2-.09a22.35,22.35,0,0,1-6-1.39l.4-6.19L8.09,7.92M7.92,6.8l-.42.31L3.12,10.36l-.38.27,0,.46-.4,6.2L2.26,18l.69.27a23.43,23.43,0,0,0,6.27,1.45c.7.06,1.41.09,2.12.09a23.85,23.85,0,0,0,5.19-.57l.2-.05.17-.13,4.38-3.24.44-.32,0-.54-.36-6.72L21.26,7l-1.19.32a19.94,19.94,0,0,1-5.21.7h-.57A19.89,19.89,0,0,1,8.42,7l-.5-.17Z"/><path class="cls-3" d="M8.07,7.92,3.71,11.16A21.16,21.16,0,0,0,9.4,12.25a21.24,21.24,0,0,0,6.53-.69l4.38-3.24A21.11,21.11,0,0,1,14.24,9,21.24,21.24,0,0,1,8.07,7.92Z"/><polygon class="cls-4" points="20.67 15.04 16.29 18.28 15.93 11.56 20.31 8.31 20.67 15.04"/><polygon class="cls-5" points="12.01 10.2 13.84 6.53 10.18 6.53 12.01 10.2"/><line class="cls-6" x1="12.01" y1="7.14" x2="12.01" y2="3"/></g></svg>