<svg xmlns="http://www.w3.org/2000/svg" xmlns:xlink="http://www.w3.org/1999/xlink" viewBox="0 0 24 24"><defs><style>.cls-1,.cls-2{stroke:#400000;}.cls-1{stroke-linejoin:round;fill:url(#linear-gradient);}.cls-2{fill:none;stroke-miterlimit:10;stroke-width:0.25px;}.cls-3{fill:#e1071a;}.cls-4{fill:#fff;}</style><linearGradient id="linear-gradient" x1="10" y1="6.71" x2="10" y2="12.99" gradientUnits="userSpaceOnUse"><stop offset="0" stop-color="#fbbc71"/><stop offset="1" stop-color="#8f6b40"/></linearGradient></defs><title>ExportMaterialtoKaramba</title><g id="Middle"><rect class="cls-1" x="4" y="4" width="12" height="12"/><path class="cls-2" d="M10.58,16a1.76,1.76,0,0,0-.72-.26,1.85,1.85,0,0,0-1.06.21"/><path class="cls-2" d="M12.16,15.91a2,2,0,0,0-.62-.68,3,3,0,0,0-1.68-.38,3.64,3.64,0,0,0-1.78.25,2.74,2.74,0,0,0-1,.81"/><path class="cls-2" d="M13.89,15.91a3.82,3.82,0,0,0-1.54-1.4A4.81,4.81,0,0,0,10,14a6,6,0,0,0-2.93.64,5.14,5.14,0,0,0-1.53,1.19"/><path class="cls-2" d="M15.66,16a4.54,4.54,0,0,0-1.39-1.84A6.62,6.62,0,0,0,9.86,13a7.73,7.73,0,0,0-4.28,1.28A6.28,6.28,0,0,0,4,15.91"/><path class="cls-2" d="M16,13.44a1.35,1.35,0,0,0-.24-.22,1.66,1.66,0,0,0-.38-.17"/><path class="cls-2" d="M4.53,13.05a1.09,1.09,0,0,0-.34.26.75.75,0,0,0-.14.26"/><rect class="cls-2" x="4" y="13.01" width="12" height="2.99" transform="translate(20 29.01) rotate(180)"/><path class="cls-2" d="M10.58,13a1.76,1.76,0,0,0-.72-.26,1.85,1.85,0,0,0-1.06.21"/><path class="cls-2" d="M12.16,12.91a2,2,0,0,0-.62-.68,3,3,0,0,0-1.68-.38,3.64,3.64,0,0,0-1.78.25,2.74,2.74,0,0,0-1,.81"/><path class="cls-2" d="M13.89,12.91a3.82,3.82,0,0,0-1.54-1.4A4.81,4.81,0,0,0,10,11a6,6,0,0,0-2.93.64,5.14,5.14,0,0,0-1.53,1.19"/><path class="cls-2" d="M15.66,13a4.54,4.54,0,0,0-1.39-1.84A6.62,6.62,0,0,0,9.86,10a7.73,7.73,0,0,0-4.28,1.28A6.28,6.28,0,0,0,4,12.91"/><path class="cls-2" d="M16,10.44a1.35,1.35,0,0,0-.24-.22,1.66,1.66,0,0,0-.38-.17"/><path class="cls-2" d="M4.53,10.05a1.09,1.09,0,0,0-.34.26.75.75,0,0,0-.14.26"/><rect class="cls-2" x="4" y="10.01" width="12" height="2.99" transform="translate(20 23.01) rotate(180)"/><path class="cls-2" d="M10.58,10a1.76,1.76,0,0,0-.72-.26,1.85,1.85,0,0,0-1.06.21"/><path class="cls-2" d="M12.16,9.91a2,2,0,0,0-.62-.68,3,3,0,0,0-1.68-.38,3.64,3.64,0,0,0-1.78.25,2.74,2.74,0,0,0-1,.81"/><path class="cls-2" d="M13.89,9.91a3.82,3.82,0,0,0-1.54-1.4A4.81,4.81,0,0,0,10,8a6,6,0,0,0-2.93.64A5.14,5.14,0,0,0,5.54,9.87"/><path class="cls-2" d="M15.66,10a4.54,4.54,0,0,0-1.39-1.84A6.62,6.62,0,0,0,9.86,7,7.73,7.73,0,0,0,5.58,8.29,6.28,6.28,0,0,0,4,9.91"/><path class="cls-2" d="M16,7.44a1.35,1.35,0,0,0-.24-.22,1.66,1.66,0,0,0-.38-.17"/><path class="cls-2" d="M4.53,7.05a1.09,1.09,0,0,0-.34.26.75.75,0,0,0-.14.26"/><rect class="cls-2" x="4" y="7.01" width="12" height="2.99" transform="translate(20 17.01) rotate(180)"/><path class="cls-2" d="M10.58,7a1.76,1.76,0,0,0-.72-.26,1.85,1.85,0,0,0-1.06.21"/><path class="cls-2" d="M12.16,6.91a2,2,0,0,0-.62-.68,3,3,0,0,0-1.68-.38,3.64,3.64,0,0,0-1.78.25,2.74,2.74,0,0,0-1,.81"/><path class="cls-2" d="M13.89,6.91a3.82,3.82,0,0,0-1.54-1.4A4.81,4.81,0,0,0,10,5a6,6,0,0,0-2.93.64A5.14,5.14,0,0,0,5.54,6.87"/><path class="cls-2" d="M15.66,7a4.54,4.54,0,0,0-1.39-1.84A6.62,6.62,0,0,0,9.86,4,7.73,7.73,0,0,0,5.58,5.29,6.28,6.28,0,0,0,4,6.91"/><path class="cls-2" d="M16,4.44a1.35,1.35,0,0,0-.24-.22,1.66,1.66,0,0,0-.38-.17"/><path class="cls-2" d="M4.53,4.05a1.09,1.09,0,0,0-.34.26.75.75,0,0,0-.14.26"/><rect class="cls-2" x="4" y="4.01" width="12" height="2.99" transform="translate(20 11.01) rotate(180)"/></g><g id="Top"><path class="cls-3" d="M19.81,22.25a.22.22,0,0,1-.13,0,3.91,3.91,0,0,1-1.15-1.11,8.14,8.14,0,0,1-.7-1.38l-.11-.24c-.17-.4-.36-.79-.54-1.19l0-.07c-.07.18-.13.36-.19.54a6.54,6.54,0,0,0-.27,1.33l-.08.52a2.7,2.7,0,0,1,0,.28.35.35,0,0,1-.33.27l-1-.08a.36.36,0,0,1-.29-.36v-.51c0-.31,0-.62,0-.92-.07-1.06-.14-2.11-.24-3.17A17.9,17.9,0,0,0,14.12,13a.27.27,0,0,1,0-.2.31.31,0,0,1,.16-.11l1.14-.28h.06a.26.26,0,0,1,.24.19,22.27,22.27,0,0,1,.6,3.42,8,8,0,0,1,2.5-2.38,18.74,18.74,0,0,1,2.53-1.3l.13,0a.28.28,0,0,1,.26.13l.47,1.07a.25.25,0,0,1-.13.33l-.46.2a11.57,11.57,0,0,0-2.73,1.61,6.67,6.67,0,0,0-.6.59l-.16.18c.52,1,1,2,1.4,3a3.12,3.12,0,0,0,.68,1.05l.23.19.13.1a.25.25,0,0,1,.05.33l-.61,1A.25.25,0,0,1,19.81,22.25Z"/><path class="cls-4" d="M21.53,12.57,22,13.64l-.45.2a11.79,11.79,0,0,0-2.8,1.65,9.63,9.63,0,0,0-.84.85.14.14,0,0,0,0,.14c.54,1,1,2.05,1.44,3.1a3.26,3.26,0,0,0,.74,1.13c.12.11.24.2.37.3l-.62,1a3.54,3.54,0,0,1-1.07-1A9.32,9.32,0,0,1,18,19.38c-.24-.55-.5-1.1-.75-1.65a.35.35,0,0,0-.1-.12c-.13.36-.26.71-.38,1.07a10.27,10.27,0,0,0-.33,1.74c0,.14,0,.28-.06.42a.13.13,0,0,1-.09.07h0l-1-.08s-.06-.07-.06-.11c0-.48,0-1,0-1.45-.07-1.05-.14-2.11-.24-3.17A19,19,0,0,0,14.36,13l1.14-.28a25,25,0,0,1,.67,4.13l.06-.07A7.55,7.55,0,0,1,19,13.87a19.5,19.5,0,0,1,2.49-1.28l.07,0m0-.5a.51.51,0,0,0-.17,0l.17.47-.19-.46-.07,0a19.2,19.2,0,0,0-2.56,1.32,8.44,8.44,0,0,0-2.2,1.93A19.84,19.84,0,0,0,16,12.55a.5.5,0,0,0-.48-.37l-.12,0-.56.13-.58.15a.48.48,0,0,0-.31.23.5.5,0,0,0-.06.38,17.38,17.38,0,0,1,.54,3.06c.09,1,.17,2,.24,3.16a8.94,8.94,0,0,1,0,.9v.52a.62.62,0,0,0,.51.6l1,.08h0a.62.62,0,0,0,.61-.48,2.36,2.36,0,0,0,0-.28l0-.15.05-.37a7.77,7.77,0,0,1,.25-1.24c.11.23.21.46.31.69l.11.24a8,8,0,0,0,.73,1.42,3.92,3.92,0,0,0,1.22,1.18.42.42,0,0,0,.26.08.5.5,0,0,0,.43-.24l.29-.46.32-.52a.49.49,0,0,0-.1-.65l-.13-.1-.22-.19a2.7,2.7,0,0,1-.62-1c-.41-.95-.83-1.93-1.33-2.89l0,0a7.93,7.93,0,0,1,.58-.58,11.28,11.28,0,0,1,2.68-1.57l.31-.14.14-.06a.51.51,0,0,0,.26-.66l-.28-.62L22,12.37a.51.51,0,0,0-.46-.3Z"/></g></svg>