<svg xmlns="http://www.w3.org/2000/svg" viewBox="0 0 24 24"><defs><style>.cls-1{fill:#e1071a;}.cls-2{fill:#fff;}.cls-3{fill:#fbbc71;}.cls-4{fill:#8c6239;}.cls-5{fill:#6e0000;fill-rule:evenodd;}.cls-6{fill:none;stroke:#6e0000;stroke-linejoin:bevel;}</style></defs><title>KarambaToTimberFrames</title><g id="Top"><path class="cls-1" d="M9.15,14.88a.22.22,0,0,1-.13,0,4.26,4.26,0,0,1-1.29-1.25A9.06,9.06,0,0,1,6.94,12l-.12-.26c-.2-.45-.4-.9-.61-1.35l-.07-.15L5.9,11a9.42,9.42,0,0,0-.31,1.53l-.08.59c0,.09,0,.19,0,.29a.37.37,0,0,1-.34.28c-.41,0-.8-.05-1.18-.09-.2,0-.29-.25-.29-.37s0-.38,0-.57c0-.35,0-.7,0-1Q3.53,9.79,3.37,8a21.29,21.29,0,0,0-.61-3.49.24.24,0,0,1,0-.2.24.24,0,0,1,.15-.11l1.29-.32h.06a.25.25,0,0,1,.24.18,25.09,25.09,0,0,1,.68,4A9,9,0,0,1,8.07,5.25,20.42,20.42,0,0,1,10.91,3.8a.32.32,0,0,1,.14,0,.27.27,0,0,1,.26.13l.53,1.21a.25.25,0,0,1-.12.33l-.52.22A12.92,12.92,0,0,0,8.11,7.48a8.59,8.59,0,0,0-.68.67l-.2.21c.6,1.13,1.11,2.31,1.6,3.44A3.36,3.36,0,0,0,9.6,13a2,2,0,0,0,.27.22l.13.11a.26.26,0,0,1,.06.33l-.7,1.11A.24.24,0,0,1,9.15,14.88Z"/><path class="cls-2" d="M11.08,4l.53,1.21-.51.22A13.27,13.27,0,0,0,8,7.29a10.76,10.76,0,0,0-1,1A.19.19,0,0,0,7,8.4c.61,1.14,1.12,2.32,1.63,3.5a3.59,3.59,0,0,0,.83,1.27l.41.35-.69,1.11a4,4,0,0,1-1.21-1.18,10.86,10.86,0,0,1-.89-1.77c-.27-.63-.57-1.24-.85-1.86a.34.34,0,0,0-.11-.14l-.43,1.2a12,12,0,0,0-.37,2c0,.16,0,.31-.07.47s-.06.08-.09.08h0L4,13.31s-.07-.08-.07-.12c0-.55,0-1.09,0-1.63-.07-1.2-.16-2.39-.27-3.58A20.51,20.51,0,0,0,3,4.44l1.29-.31A29,29,0,0,1,5,8.77l.07-.07A8.49,8.49,0,0,1,8.2,5.47,20.12,20.12,0,0,1,11,4l.07,0m0-.5-.17,0,.17.47-.19-.46-.07,0A20.44,20.44,0,0,0,7.94,5,9.43,9.43,0,0,0,5.39,7.33,24.2,24.2,0,0,0,4.77,4a.49.49,0,0,0-.48-.36H4.17l-.65.16L2.88,4a.53.53,0,0,0-.31.24.46.46,0,0,0,0,.38A19.65,19.65,0,0,1,3.12,8c.1,1.09.19,2.25.27,3.57,0,.33,0,.66,0,1,0,.19,0,.39,0,.58a.63.63,0,0,0,.51.62l1.17.09h0a.63.63,0,0,0,.62-.49,2.87,2.87,0,0,0,0-.31c0-.06,0-.12,0-.18l.06-.4A7.76,7.76,0,0,1,6.14,11l0-.09c.14.31.29.62.42.93l.12.27a8.8,8.8,0,0,0,.82,1.58,4.28,4.28,0,0,0,1.36,1.32.5.5,0,0,0,.26.08.52.52,0,0,0,.43-.24l.55-.88.14-.23a.5.5,0,0,0-.11-.65L10,13l-.25-.21a3,3,0,0,1-.71-1.11c-.47-1.08-1-2.2-1.52-3.29l.07-.09a8.06,8.06,0,0,1,.66-.65,12.75,12.75,0,0,1,3-1.78l.35-.15.17-.08A.49.49,0,0,0,12.07,5l-.33-.77-.2-.44a.49.49,0,0,0-.46-.3Z"/><path class="cls-3" d="M18.52,19.58a3.77,3.77,0,0,1-2-.62,9.33,9.33,0,0,1-4.25-5.77,8.06,8.06,0,0,1,1-5.1,8.11,8.11,0,0,1,2.06-2.17l.07,0v0A.66.66,0,0,1,16,5.18a.68.68,0,0,1,.4.13,3,3,0,0,1,1.06-.23,1.43,1.43,0,0,1,.48.07,5.35,5.35,0,0,1,2,1,.8.8,0,0,1,.28.8c0,.11,0,.19-.06.25a.7.7,0,0,1-.14.35,2.09,2.09,0,0,1-.71.47c-.46.23-.57,2.4-.6,3.21,0,.23,0,.41,0,.54a7.15,7.15,0,0,1-.25,1.62.42.42,0,0,1-.16.21,4.87,4.87,0,0,1,.89.29,3.45,3.45,0,0,1,2.07,3.64,2.56,2.56,0,0,1-2.68,2.06ZM16.15,13.4a11,11,0,0,1,1.39.07l-.05,0a5.46,5.46,0,0,0-2.21-1.74,3.11,3.11,0,0,0-.9-.16,1.12,1.12,0,0,0-1,.5.76.76,0,0,0,0,.77c.31.51,1,.61,2,.61Z"/><path class="cls-4" d="M17.46,5.33a1.4,1.4,0,0,1,.41.06,5,5,0,0,1,1.87.92c.18.19.28.38.22.56s-.07.4-.15.52a2.37,2.37,0,0,1-.63.39c-.71.36-.71,3.18-.77,4a7.62,7.62,0,0,1-.24,1.55.21.21,0,0,1-.21.13h0a.47.47,0,0,1-.26-.17,5.78,5.78,0,0,0-2.31-1.8,3.2,3.2,0,0,0-1-.17c-1.28,0-1.62,1.06-1.25,1.66s1.23.72,2.23.72h.78a7.16,7.16,0,0,1,2.88.46A3.23,3.23,0,0,1,21,17.48a2.34,2.34,0,0,1-2.44,1.85,3.56,3.56,0,0,1-1.91-.58,9,9,0,0,1-4.14-5.61,7.72,7.72,0,0,1,1-4.92,8.16,8.16,0,0,1,2-2.1h0L15.62,6a.59.59,0,0,1,0-.14.4.4,0,0,1,.74-.24,2.94,2.94,0,0,1,1.12-.28m-.06,1a.2.2,0,0,0,.19-.2A.2.2,0,0,0,17.4,6a.2.2,0,1,0,0,.39m.06-1.54h0a3.17,3.17,0,0,0-1,.2,1,1,0,0,0-.42-.1.91.91,0,0,0-.9.8A8.63,8.63,0,0,0,13,8a8.33,8.33,0,0,0-1,5.27,9.66,9.66,0,0,0,4.36,5.95,4.19,4.19,0,0,0,2.18.65,2.82,2.82,0,0,0,2.93-2.27,3.71,3.71,0,0,0-2.22-3.91,5.89,5.89,0,0,0-.59-.21,7.1,7.1,0,0,0,.26-1.66c0-.13,0-.32,0-.55.08-1.8.24-2.81.48-3a2.08,2.08,0,0,0,.78-.53,1,1,0,0,0,.19-.45A1.64,1.64,0,0,1,20.44,7a1,1,0,0,0-.35-1,5.48,5.48,0,0,0-2.07-1,2,2,0,0,0-.56-.08Zm-2.09,8.33c-1,0-1.55-.08-1.8-.49a.51.51,0,0,1,0-.52.87.87,0,0,1,.82-.37,2.65,2.65,0,0,1,.82.15,4.2,4.2,0,0,1,1.69,1.24c-.25,0-.5,0-.75,0h-.78Z"/><polygon class="cls-5" points="10.46 17.1 6.66 15.2 6.66 19 10.46 17.1"/><line class="cls-6" x1="7.29" y1="17.1" x2="3" y2="17.1"/></g></svg>