<svg xmlns="http://www.w3.org/2000/svg" xmlns:xlink="http://www.w3.org/1999/xlink" viewBox="0 0 24 24"><defs><style>.cls-1,.cls-2{stroke:#400000;}.cls-1{stroke-linejoin:round;fill:url(#linear-gradient);}.cls-2{fill:none;stroke-miterlimit:10;stroke-width:0.25px;}</style><linearGradient id="linear-gradient" x1="12" y1="7.71" x2="12" y2="15.9" gradientUnits="userSpaceOnUse"><stop offset="0" stop-color="#fbbc71"/><stop offset="1" stop-color="#8f6b40"/></linearGradient></defs><title>Material</title><g id="Bottom"><rect class="cls-1" x="4.18" y="4.18" width="15.64" height="15.64"/></g><g id="Middle"><path class="cls-2" d="M12.75,19.76a2.2,2.2,0,0,0-.94-.33,2.26,2.26,0,0,0-1.37.28"/><path class="cls-2" d="M14.81,19.71a2.45,2.45,0,0,0-.81-.89,3.76,3.76,0,0,0-2.19-.5,4.67,4.67,0,0,0-2.31.33,3.57,3.57,0,0,0-1.32,1.06"/><path class="cls-2" d="M17.07,19.71a5.07,5.07,0,0,0-2-1.84A6.48,6.48,0,0,0,12,17.26a7.92,7.92,0,0,0-3.82.83,7,7,0,0,0-2,1.56"/><path class="cls-2" d="M19.38,19.76a6,6,0,0,0-1.81-2.39,8.65,8.65,0,0,0-5.76-1.45,10,10,0,0,0-5.56,1.67,7.84,7.84,0,0,0-2.07,2.12"/><path class="cls-2" d="M19.76,16.48a1.58,1.58,0,0,0-.32-.28,1.46,1.46,0,0,0-.5-.22"/><path class="cls-2" d="M4.87,16a1.25,1.25,0,0,0-.44.33,1.2,1.2,0,0,0-.19.34"/><rect class="cls-2" x="4.18" y="15.92" width="15.64" height="3.9" transform="translate(24 35.74) rotate(180)"/><path class="cls-2" d="M12.75,15.85a2.2,2.2,0,0,0-.94-.33,2.26,2.26,0,0,0-1.37.28"/><path class="cls-2" d="M14.81,15.8a2.45,2.45,0,0,0-.81-.89,3.84,3.84,0,0,0-2.19-.5,4.67,4.67,0,0,0-2.31.33A3.57,3.57,0,0,0,8.18,15.8"/><path class="cls-2" d="M17.07,15.8a5.07,5.07,0,0,0-2-1.84A6.48,6.48,0,0,0,12,13.35a7.92,7.92,0,0,0-3.82.83,7,7,0,0,0-2,1.56"/><path class="cls-2" d="M19.38,15.85a6,6,0,0,0-1.81-2.39A8.71,8.71,0,0,0,11.81,12a10,10,0,0,0-5.56,1.67A7.84,7.84,0,0,0,4.18,15.8"/><path class="cls-2" d="M19.76,12.57a1.58,1.58,0,0,0-.32-.28,1.69,1.69,0,0,0-.5-.22"/><path class="cls-2" d="M4.87,12.07a1.25,1.25,0,0,0-.44.33,1.2,1.2,0,0,0-.19.34"/><rect class="cls-2" x="4.18" y="12.01" width="15.64" height="3.9" transform="translate(24 27.92) rotate(180)"/><path class="cls-2" d="M12.75,11.94a2.2,2.2,0,0,0-.94-.33,2.26,2.26,0,0,0-1.37.28"/><path class="cls-2" d="M14.81,11.89A2.45,2.45,0,0,0,14,11a3.84,3.84,0,0,0-2.19-.5,4.67,4.67,0,0,0-2.31.33,3.57,3.57,0,0,0-1.32,1.06"/><path class="cls-2" d="M17.07,11.89a5.14,5.14,0,0,0-2-1.84A6.48,6.48,0,0,0,12,9.44a8,8,0,0,0-3.82.83,7.14,7.14,0,0,0-2,1.56"/><path class="cls-2" d="M19.38,11.94a6,6,0,0,0-1.81-2.39A8.71,8.71,0,0,0,11.81,8.1,10,10,0,0,0,6.25,9.77a7.84,7.84,0,0,0-2.07,2.12"/><path class="cls-2" d="M19.76,8.66a1.58,1.58,0,0,0-.32-.28,1.69,1.69,0,0,0-.5-.22"/><path class="cls-2" d="M4.87,8.16a1.25,1.25,0,0,0-.44.33,1.2,1.2,0,0,0-.19.34"/><rect class="cls-2" x="4.18" y="8.1" width="15.64" height="3.9" transform="translate(24 20.1) rotate(180)"/><path class="cls-2" d="M12.75,8a2.05,2.05,0,0,0-.94-.34A2.26,2.26,0,0,0,10.44,8"/><path class="cls-2" d="M14.81,8A2.45,2.45,0,0,0,14,7.09a3.84,3.84,0,0,0-2.19-.5,4.67,4.67,0,0,0-2.31.33A3.57,3.57,0,0,0,8.18,8"/><path class="cls-2" d="M17.07,8a5.22,5.22,0,0,0-2-1.84A6.48,6.48,0,0,0,12,5.53a8,8,0,0,0-3.82.84,7,7,0,0,0-2,1.55"/><path class="cls-2" d="M19.38,8a6,6,0,0,0-1.81-2.4A8.64,8.64,0,0,0,11.81,4.2,9.87,9.87,0,0,0,6.25,5.87,8,8,0,0,0,4.18,8"/><path class="cls-2" d="M19.76,4.75a1.58,1.58,0,0,0-.32-.28,1.69,1.69,0,0,0-.5-.22"/><path class="cls-2" d="M4.87,4.25a1.18,1.18,0,0,0-.44.34,1.05,1.05,0,0,0-.19.33"/><rect class="cls-2" x="4.18" y="4.2" width="15.64" height="3.9" transform="translate(24 12.29) rotate(180)"/></g></svg>