<svg xmlns="http://www.w3.org/2000/svg" viewBox="0 0 24 24"><defs><style>.cls-1{fill:#400000;}</style></defs><title>Screw</title><g id="Top"><polygon class="cls-1" points="15.05 10.85 12.88 12.89 10.88 11.6 13.36 9.26 15.05 10.85"/><path class="cls-1" d="M7,18.11,5.5,18.7a1.62,1.62,0,0,1-.2.08l.56-1.38Z"/><path class="cls-1" d="M10,12.39a.27.27,0,0,1,0-.33.26.26,0,0,1,.36-.07l2.19,1.42a.26.26,0,0,1,.07.36.27.27,0,0,1-.36.06L10,12.42Z"/><path class="cls-1" d="M9.26,13.11a.27.27,0,0,1,0-.33.27.27,0,0,1,.36-.06l2.19,1.41a.26.26,0,0,1-.29.43L9.3,13.14Z"/><path class="cls-1" d="M8.54,13.83a.26.26,0,0,1,0-.33.25.25,0,0,1,.35-.06l2.2,1.42a.25.25,0,0,1,.06.35.25.25,0,0,1-.35.07L8.58,13.86Z"/><path class="cls-1" d="M7.82,14.55a.26.26,0,0,1,0-.33.25.25,0,0,1,.35-.06l2.2,1.42a.25.25,0,0,1,.06.35.25.25,0,0,1-.35.07l-2.2-1.42Z"/><path class="cls-1" d="M7.1,15.27a.24.24,0,0,1,0-.32.25.25,0,0,1,.35-.07l2.2,1.42a.25.25,0,0,1,.06.35.25.25,0,0,1-.35.07L7.13,15.3Z"/><path class="cls-1" d="M6.53,16.09a.27.27,0,0,1,0-.33.27.27,0,0,1,.36-.06l1.83,1.18a.26.26,0,0,1,.07.36.28.28,0,0,1-.36.07L6.57,16.12Z"/><path class="cls-1" d="M6,16.93a.26.26,0,0,1,0-.33.25.25,0,0,1,.35-.06l1.47.95a.25.25,0,0,1,.07.35.26.26,0,0,1-.36.07L6,17Z"/><path class="cls-1" d="M19.66,10.87l-.94-.95L17.36,8.57l-.64.64L15.21,7.7l.64-.64L14.41,5.61l-.95-.94a.76.76,0,0,0-1.08,0l-.8.81a.76.76,0,0,0,0,1.08l.94.94,4.31,4.31.94.94a.76.76,0,0,0,1.08,0l.81-.8A.76.76,0,0,0,19.66,10.87Z"/></g></svg>