<svg xmlns="http://www.w3.org/2000/svg" viewBox="0 0 24 24"><defs><style>.cls-1{fill:#fbbc71;}.cls-2{fill:#400000;}.cls-3{fill:#fff;}.cls-4,.cls-5{fill:#6e0000;}.cls-4{fill-rule:evenodd;}</style></defs><title>ShearConnection</title><g id="Top"><rect class="cls-1" x="6.56" y="7.87" width="9.82" height="3.53"/><path class="cls-2" d="M16.25,8v3.28H6.68V8h9.57m.25-.25H6.43v3.78H16.5V7.75Z"/><rect class="cls-1" x="7.9" y="11.48" width="9.69" height="7.38"/><path class="cls-2" d="M17.47,11.6v7.13H8V11.6h9.44m.25-.25H7.78V19h9.94V11.35Z"/><path class="cls-3" d="M15.73,4.35H12.81V5h-.75V4.35h-3a1,1,0,0,0-1,1v.88a1,1,0,0,0,1,1h2l-.09,2.88a.61.61,0,0,0-.23.61.58.58,0,0,0,.15.25.63.63,0,0,0-.15.53.64.64,0,0,0,.15.25.63.63,0,0,0-.15.53.64.64,0,0,0,.15.25.62.62,0,0,0-.15.53.58.58,0,0,0,.15.25s0,0,0,0a.59.59,0,0,0-.1.48.57.57,0,0,0,.2.34.61.61,0,0,0,.16.78.69.69,0,0,0-.08.37.62.62,0,0,0,.37.43l.88,2,1-2.35a.61.61,0,0,0,.26-.63.5.5,0,0,0-.08-.2.61.61,0,0,0,.25-.62c0-.08-.08-.13-.13-.2s.17-.07.22-.14a.67.67,0,0,0,.1-.48.7.7,0,0,0-.14-.27s0,0,0,0a.65.65,0,0,0,.1-.47.5.5,0,0,0-.14-.27.66.66,0,0,0,.14-.51.56.56,0,0,0-.16-.24.69.69,0,0,0,.16-.54c0-.1-.1-.16-.16-.24a.68.68,0,0,0,.16-.54.61.61,0,0,0-.3-.41l.07-2.42h2.06a1,1,0,0,0,1-1V5.37A1,1,0,0,0,15.73,4.35Zm-3,4.83-.89.19.05-1.62.88,0Zm-1.4,4.69h0V13.6h0Zm0-.78h0v-.27h0Zm0-.77h0V12h0Zm4.54-6.07a.15.15,0,0,1-.14.14H9.05a.15.15,0,0,1-.15-.14V5.37a.15.15,0,0,1,.15-.14h2.13v.69h2.51V5.23h2a.15.15,0,0,1,.14.14Z"/><polygon class="cls-4" points="22 15.53 19.7 14.38 19.7 16.68 22 15.53"/><rect class="cls-5" x="18.36" y="15.23" width="1.72" height="0.61"/><polygon class="cls-4" points="1.97 9.64 4.27 10.79 4.27 8.49 1.97 9.64"/><rect class="cls-5" x="3.88" y="9.34" width="1.72" height="0.61"/><polygon class="cls-2" points="13.23 7.27 13.16 9.54 11.39 9.92 11.47 7.32 13.23 7.27"/><path class="cls-2" d="M12.79,15.53c-.19.43-.29.68-.47,1.11a1.44,1.44,0,0,0-.07.16c-.18-.44-.27-.64-.44-1.05Z"/><path class="cls-2" d="M11.33,10.83a.19.19,0,0,1-.19-.16.2.2,0,0,1,.15-.23l2-.42a.2.2,0,0,1,.23.16.19.19,0,0,1-.16.22l-2,.42Z"/><path class="cls-2" d="M11.33,11.6a.18.18,0,0,1-.19-.16.19.19,0,0,1,.15-.22l2-.42a.2.2,0,0,1,.23.16.19.19,0,0,1-.16.22l-2,.42Z"/><path class="cls-2" d="M11.33,12.38a.18.18,0,0,1-.19-.16.2.2,0,0,1,.15-.23l2-.41a.2.2,0,0,1,.23.15.2.2,0,0,1-.16.23l-2,.42Z"/><path class="cls-2" d="M11.33,13.16a.19.19,0,0,1-.19-.16.2.2,0,0,1,.15-.23l2-.42a.2.2,0,0,1,.23.16.2.2,0,0,1-.16.23l-2,.41Z"/><path class="cls-2" d="M11.33,13.94a.19.19,0,0,1-.19-.16.2.2,0,0,1,.15-.23l2-.42a.2.2,0,0,1,.23.16.19.19,0,0,1-.16.22l-2,.42Z"/><path class="cls-2" d="M11.46,14.68a.2.2,0,0,1,0-.39L13.06,14a.19.19,0,0,1,.22.15.2.2,0,0,1-.15.23l-1.63.35Z"/><path class="cls-2" d="M11.62,15.43a.18.18,0,0,1-.19-.16.19.19,0,0,1,.15-.22l1.3-.28a.19.19,0,1,1,.08.38l-1.31.28Z"/><path class="cls-2" d="M15.73,4.79H13.25v.69H11.62V4.79H9.05a.59.59,0,0,0-.59.58v.87a.6.6,0,0,0,.59.59h6.68a.59.59,0,0,0,.58-.59V5.37A.59.59,0,0,0,15.73,4.79Z"/></g></svg>