<svg xmlns="http://www.w3.org/2000/svg" viewBox="0 0 24 24"><defs><style>.cls-1,.cls-7{fill:none;}.cls-1{stroke:#231f20;stroke-miterlimit:10;}.cls-1,.cls-6{fill-rule:evenodd;}.cls-2{fill:#c49358;}.cls-3{fill:#400000;}.cls-4{fill:#fbbc71;}.cls-5{fill:#8f6b40;}.cls-6{fill:#6e0000;}.cls-7{stroke:#6e0000;stroke-linejoin:bevel;}</style></defs><title>SLSResults</title><g id="GH_Library" data-name="GH Library"><path class="cls-1" d="M7.32,5.48a.94.94,0,0,0,.94.94h.62a.94.94,0,1,0,0-1.87H8.26a.94.94,0,0,1,0-1.88h.62a.94.94,0,0,1,.94.94"/><path class="cls-1" d="M14.89,5.48a.94.94,0,0,0,.94.94h.62a.94.94,0,1,0,0-1.87h-.62a.94.94,0,1,1,0-1.88h.62a.94.94,0,0,1,.94.94"/><path class="cls-1" d="M11.43,2.36V5.48a.94.94,0,0,0,.93.94h1.73"/></g><g id="Top"><path class="cls-2" d="M11.43,21.6c-.59,0-1.19,0-1.77-.08A19.52,19.52,0,0,1,4.39,20.3L4,20.17l.38-5.9L8.57,11.2l.25.09a17.27,17.27,0,0,0,5.13.93h.5A17.56,17.56,0,0,0,19,11.62l.59-.16L20,18.09l-4,3-.1,0a19.52,19.52,0,0,1-4.37.49Z"/><path class="cls-3" d="M8.66,11.76a17.81,17.81,0,0,0,5.28,1h.51a17.84,17.84,0,0,0,4.68-.63l.3,5.75-3.74,2.78a19.67,19.67,0,0,1-4.26.47c-.55,0-1.13,0-1.73-.08a19.05,19.05,0,0,1-5.13-1.19l.34-5.29,3.75-2.78m-.18-1.12L8.06,11,4.31,13.73,3.94,14l0,.46-.34,5.3,0,.74.69.26A20.49,20.49,0,0,0,9.61,22c.6.05,1.22.08,1.82.08a20.51,20.51,0,0,0,4.48-.5l.2,0,.17-.13L20,18.65l.43-.31,0-.54-.3-5.75-.07-1.24-1.19.33a16.93,16.93,0,0,1-4.42.59H14a16.66,16.66,0,0,1-5-.91l-.5-.17Z"/><path class="cls-4" d="M8.64,11.76,4.91,14.54a18.44,18.44,0,0,0,4.86.93,18.46,18.46,0,0,0,5.59-.59l3.75-2.78a17.81,17.81,0,0,1-5.19.62A17.81,17.81,0,0,1,8.64,11.76Z"/><polygon class="cls-5" points="19.42 17.85 15.67 20.63 15.36 14.88 19.11 12.1 19.42 17.85"/><polygon class="cls-6" points="12.01 13.71 13.58 10.57 10.44 10.57 12.01 13.71"/><line class="cls-7" x1="12.01" y1="11.1" x2="12.01" y2="7.55"/></g></svg>