<svg xmlns="http://www.w3.org/2000/svg" viewBox="0 0 24 24"><defs><style>.cls-1{fill:none;stroke:#231f20;fill-rule:evenodd;}.cls-1,.cls-4{stroke-miterlimit:10;}.cls-2,.cls-4{fill:#fbbc71;}.cls-3{fill:#400000;}.cls-4{stroke:#400000;stroke-width:0.25px;}</style></defs><title>Spacing</title><g id="Middle"><path class="cls-1" d="M17.64,7a1.14,1.14,0,0,0,1.13,1.14h.76a1.14,1.14,0,0,0,0-2.27h-.76a1.13,1.13,0,1,1,0-2.26h.76a1.14,1.14,0,0,1,1.13,1.13"/><rect class="cls-2" x="3.46" y="8.9" width="13.02" height="9.33"/><path class="cls-3" d="M16,9.4v8.33H4V9.4H16m1-1H3V18.73H17V8.4Z"/><rect class="cls-2" x="5.86" y="5.44" width="8.35" height="15.08"/><path class="cls-3" d="M13.71,5.94V20H6.36V5.94h7.35m1-1H5.36V21h9.35V4.94Z"/><line class="cls-4" x1="8.77" y1="10.95" x2="8.77" y2="12.93"/><line class="cls-4" x1="7.78" y1="11.94" x2="9.76" y2="11.94"/><circle class="cls-4" cx="8.77" cy="11.94" r="0.23"/><line class="cls-4" x1="11.3" y1="10.95" x2="11.3" y2="12.93"/><line class="cls-4" x1="10.31" y1="11.94" x2="12.29" y2="11.94"/><circle class="cls-4" cx="11.3" cy="11.94" r="0.23"/><line class="cls-4" x1="8.77" y1="14.58" x2="8.77" y2="16.56"/><line class="cls-4" x1="7.78" y1="15.57" x2="9.76" y2="15.57"/><circle class="cls-4" cx="8.77" cy="15.57" r="0.23"/><line class="cls-4" x1="11.3" y1="14.58" x2="11.3" y2="16.56"/><line class="cls-4" x1="10.31" y1="15.57" x2="12.29" y2="15.57"/><circle class="cls-4" cx="11.3" cy="15.57" r="0.23"/><line class="cls-4" x1="18.37" y1="11.94" x2="20" y2="11.94"/><line class="cls-4" x1="18.37" y1="12.75" x2="20" y2="11.12"/><line class="cls-4" x1="18.37" y1="16.38" x2="20" y2="14.75"/><polyline class="cls-4" points="19.19 16.38 19.19 14.75 19.19 12.75 19.19 11.12"/><line class="cls-4" x1="18.37" y1="15.57" x2="20" y2="15.57"/></g></svg>