<svg xmlns="http://www.w3.org/2000/svg" xmlns:xlink="http://www.w3.org/1999/xlink" viewBox="0 0 24 24"><defs><style>.cls-1,.cls-10,.cls-2{fill:none;}.cls-1{clip-rule:evenodd;}.cls-2{stroke:#231f20;}.cls-10,.cls-2{stroke-miterlimit:10;}.cls-10,.cls-11,.cls-2,.cls-3,.cls-7,.cls-8{fill-rule:evenodd;}.cls-3{fill:#fbbc71;}.cls-4,.cls-7{fill:#c49358;}.cls-11,.cls-5{fill:#400000;}.cls-6{clip-path:url(#clip-path);}.cls-8{fill:#8f6b40;}.cls-9{clip-path:url(#clip-path-2);}.cls-10{stroke:#400000;}.cls-11{opacity:0.4;}</style><clipPath id="clip-path"><polygon class="cls-1" points="13.79 12.73 12.76 12.43 11.57 13.24 10.45 12.96 8.63 13.05 7.46 11.82 5.68 11.57 4.6 10.38 3.1 9.7 2.99 23 13.67 23 13.79 12.73"/></clipPath><clipPath id="clip-path-2"><path class="cls-1" d="M15.12,12.76l-1-.3-1.19.81L11.79,13,10,13.08,8.8,11.85,7,11.6,5.94,10.41l-1.5-.68V1H15.19S15.12,12.59,15.12,12.76Z"/></clipPath></defs><title>ULSResults</title><g id="GH_Library" data-name="GH Library"><path class="cls-2" d="M17.72,18.4a.91.91,0,0,0,.91.91h.61a.91.91,0,1,0,0-1.82h-.61a.91.91,0,1,1,0-1.82h.61a.91.91,0,0,1,.91.91"/><path class="cls-2" d="M17.72,4.9v3a.91.91,0,0,0,.91.91h.61a.91.91,0,0,0,.91-.91v-3"/><path class="cls-2" d="M17.89,9.87v3a.91.91,0,0,0,.91.91h1.68"/></g><g id="Bottom"><polygon class="cls-3" points="3.66 10.03 8.63 15.73 12.21 13.32 7.97 6.87 3.66 10.03"/><line class="cls-4" x1="3.4" y1="9.9" x2="4.99" y2="8.77"/><polygon class="cls-5" points="3.72 9.98 3.2 9.73 4.56 8.77 4.54 9.38 4.56 9.69 4.33 9.54 3.72 9.98"/></g><g id="Middle"><g class="cls-6"><path class="cls-7" d="M8.63,21.91l-.16,0L3.54,20.14a.5.5,0,0,1-.33-.47V6a.51.51,0,0,1,.21-.41L7.74,2.45a.48.48,0,0,1,.46-.07l5,1.82a.5.5,0,0,1,.33.47V18.28a.49.49,0,0,1-.21.4l-4.4,3.14A.48.48,0,0,1,8.63,21.91Z"/><path class="cls-5" d="M8,2.85l5,1.82V18.28l-4.4,3.13L3.71,19.67V6L8,2.85m0-1A1,1,0,0,0,7.45,2L3.12,5.18A1,1,0,0,0,2.71,6V19.67a1,1,0,0,0,.67.94L8.3,22.36a1,1,0,0,0,.33.05,1,1,0,0,0,.58-.18l4.4-3.14a1,1,0,0,0,.42-.81V4.67a1,1,0,0,0-.66-.94l-5-1.82A1,1,0,0,0,8,1.85Z"/><polygon class="cls-8" points="8.63 7.75 8.63 21.44 13.03 18.28 13.03 4.67 8.63 7.75"/></g><g class="cls-9"><path class="cls-7" d="M10,22l-.17,0L4.88,20.17a.5.5,0,0,1-.33-.47V6a.51.51,0,0,1,.2-.41L9.08,2.48a.51.51,0,0,1,.29-.1.47.47,0,0,1,.17,0l5,1.82a.5.5,0,0,1,.33.47V18.31a.52.52,0,0,1-.21.41l-4.4,3.13A.51.51,0,0,1,10,22Z"/><path class="cls-5" d="M9.37,2.88l5,1.82V18.31L10,21.45,5.05,19.7V6L9.37,2.88m0-1a1.06,1.06,0,0,0-.59.19L4.46,5.21A1,1,0,0,0,4.05,6V19.7a1,1,0,0,0,.66.94l4.93,1.75a1,1,0,0,0,.33.06,1,1,0,0,0,.58-.19L15,19.12a1,1,0,0,0,.42-.81V4.7a1,1,0,0,0-.66-.94l-5-1.82a1,1,0,0,0-.34-.06Z"/><polygon class="cls-3" points="5.05 6.02 9.97 7.78 14.37 4.7 9.35 2.86 5.05 6.02"/><polygon class="cls-8" points="9.97 7.79 9.97 21.47 14.37 18.31 14.37 4.7 9.97 7.79"/></g><polyline class="cls-10" points="2.85 8.99 5.97 10.41 7.05 11.6 8.83 11.85 10 13.09 11.82 12.99 12.94 13.27 14.13 12.46 15.89 12.98"/></g><g id="Top"><polygon class="cls-11" points="13.04 13.69 12.86 13.81 11.74 13.53 9.92 13.63 9.61 13.26 9.61 13.04 9.82 13.02 10.03 13.25 11.85 13.15 12.96 13.43 13.04 13.38 13.04 13.69"/></g></svg>